<svg width="99" height="94" viewBox="0 0 99 94" fill="none" xmlns="http://www.w3.org/2000/svg">
<path d="M24.75 19.7895V9.89474C24.75 7.17369 25.7202 4.84348 27.6606 2.90411C29.601 0.964744 31.9308 -0.00328985 34.65 8.39961e-06H64.35C67.0725 8.39961e-06 69.4039 0.969693 71.3443 2.90906C73.2847 4.84843 74.2533 7.17699 74.25 9.89474V19.7895H89.1C91.8225 19.7895 94.1539 20.7592 96.0943 22.6985C98.0347 24.6379 99.0033 26.9665 99 29.6842V84.1053C99 86.8263 98.0298 89.1565 96.0894 91.0959C94.149 93.0352 91.8192 94.0033 89.1 94H9.90001C7.17751 94 4.84606 93.0303 2.90566 91.0909C0.965258 89.1516 -0.0032916 86.823 8.40408e-06 84.1053V29.6842C8.40408e-06 26.9632 0.970208 24.6329 2.91061 22.6936C4.85101 20.7542 7.18081 19.7862 9.90001 19.7895H24.75ZM34.65 19.7895H64.35V9.89474H34.65V19.7895ZM9.90001 74.2105H89.1V59.3684H9.90001V74.2105Z" fill="#B5BEDF"/>
</svg>
