<svg width="89" height="89" viewBox="0 0 89 89" fill="none" xmlns="http://www.w3.org/2000/svg">
<path d="M36.8361 49.3208L43.2639 55.7486C44.1704 56.6551 45.3241 57.1083 46.725 57.1083C48.1259 57.1083 49.2796 56.6551 50.1861 55.7486L64.2778 41.6569V44.6236C64.2778 46.0245 64.7524 47.1782 65.7018 48.0847C66.6511 48.9912 67.8246 49.4444 69.2222 49.4444C70.6231 49.4444 71.7983 48.9714 72.7476 48.0254C73.6969 47.0793 74.17 45.9042 74.1667 44.5V29.6667C74.1667 28.2657 73.692 27.0906 72.7427 26.1413C71.7933 25.1919 70.6198 24.7189 69.2222 24.7222H54.2653C52.8643 24.7222 51.7106 25.1969 50.8042 26.1462C49.8977 27.0956 49.4444 28.269 49.4444 29.6667C49.4444 31.0676 49.9191 32.2427 50.8684 33.1921C51.8178 34.1414 52.9913 34.6144 54.3889 34.6111H57.2319L46.725 45.2417L40.2972 38.8139C39.3907 37.825 38.237 37.3306 36.8361 37.3306C35.4352 37.3306 34.2815 37.825 33.375 38.8139L18.2944 53.8944C17.3056 54.8009 16.8111 55.9546 16.8111 57.3556C16.8111 58.7565 17.3056 59.9102 18.2944 60.8167C19.2009 61.8055 20.3546 62.3 21.7556 62.3C23.1565 62.3 24.3102 61.8055 25.2167 60.8167L36.8361 49.3208ZM9.8889 89C7.16945 89 4.84062 88.0309 2.9024 86.0927C0.964174 84.1544 -0.0032879 81.8272 8.39464e-06 79.1111V9.8889C8.39464e-06 7.16945 0.969119 4.84062 2.90734 2.9024C4.84556 0.964174 7.17275 -0.0032879 9.8889 8.39464e-06H79.1111C81.8305 8.39464e-06 84.1594 0.969119 86.0976 2.90734C88.0358 4.84556 89.0033 7.17275 89 9.8889V79.1111C89 81.8305 88.0309 84.1594 86.0927 86.0976C84.1544 88.0358 81.8272 89.0033 79.1111 89H9.8889Z" fill="#B5BEDF"/>
</svg>
