<svg width="79" height="97" viewBox="0 0 79 97" fill="none" xmlns="http://www.w3.org/2000/svg">
<path d="M39.5 53.2886C44.2729 53.2886 48.3464 51.6105 51.7203 48.2544C55.0943 44.8983 56.7812 40.8464 56.7812 36.0987C56.7812 31.3511 55.0943 27.2992 51.7203 23.943C48.3464 20.5869 44.2729 18.9089 39.5 18.9089C34.7271 18.9089 30.6536 20.5869 27.2797 23.943C23.9057 27.2992 22.2187 31.3511 22.2187 36.0987C22.2187 40.8464 23.9057 44.8983 27.2797 48.2544C30.6536 51.6105 34.7271 53.2886 39.5 53.2886ZM39.5 87.1772C44.3552 85.6219 48.6558 83.1859 52.4017 79.8691C56.1476 76.5522 59.4179 72.8081 62.2125 68.6367C58.674 66.8359 54.9906 65.4639 51.1624 64.521C47.3342 63.578 43.4467 63.1081 39.5 63.1114C35.55 63.1114 31.6609 63.5829 27.8327 64.5259C24.0045 65.4689 20.3227 66.8391 16.7875 68.6367C19.5854 72.8114 22.8573 76.5571 26.6032 79.874C30.3492 83.1908 34.6481 85.6252 39.5 87.1772ZM39.5 97C38.924 97 38.3891 96.9591 37.8953 96.8772C37.4016 96.7954 36.9078 96.6726 36.4141 96.5089C25.3047 92.8253 16.4583 86.0099 9.875 76.0627C3.29167 66.1155 0 55.4136 0 43.957V20.7506C0 18.7042 0.597437 16.8624 1.79231 15.2253C2.98719 13.5882 4.52933 12.4013 6.41875 11.6646L36.0437 0.613924C37.1958 0.204641 38.3479 0 39.5 0C40.6521 0 41.8042 0.204641 42.9562 0.613924L72.5812 11.6646C74.474 12.4013 76.0177 13.5882 77.2126 15.2253C78.4075 16.8624 79.0033 18.7042 79 20.7506V43.957C79 55.4169 75.7083 66.1204 69.125 76.0676C62.5417 86.0149 53.6953 92.8286 42.5859 96.5089C42.0922 96.6726 41.5984 96.7954 41.1047 96.8772C40.6109 96.9591 40.076 97 39.5 97Z" fill="#B5BEDF"/>
</svg>
